<?xml version="1.0" encoding="UTF-8"?>
<!DOCTYPE svg>
<svg xmlns="http://www.w3.org/2000/svg" width="143px" height="40px">
	<path fill="#ffffff" d="M10.882,30l2.64-12.32l-3.84-15c-3.721,1.36-5.961,4.48-5.961,8.88c0,2.04,0.52,2.36,0.561,2.72 c-2.76,0-4.281-1-4.281-3.88C0,5.08,7.362,0,14.043,0c0.56,0,1.08,0.04,1.6,0.08l3.48,14.32l5.921-14.2h2.641l-7.762,17.48 L17.284,30H10.882z"/>
	<path fill="#ffffff" d="M39.65,15.48c0.24,0.24,0.6,0.36,1.161,0.36c1.88,0,2.72-1.36,4.2-1.96l0.16,0.84 c-1.24,1.56-3.32,2.88-5.641,3.521c-0.76,8.04-5.121,12-9.122,12c-4.281,0-6.121-1.8-6.121-6.56c0-9.839,5.001-14.08,10.521-14.08 C38.61,9.6,39.57,12.56,39.65,15.48z M36.57,18.64c-1.16,0-1.681-0.84-1.681-1.8c0-1.16,0.681-2.401,1.761-2.8 c-0.12-1.32-0.56-2.08-1.681-2.08c-3.761,0-5.361,8.16-5.361,11.36c0,2.4,1.121,3.04,2.681,3.04 C34.729,26.36,36.09,22.52,36.57,18.64z"/>
	<path fill="#ffffff" d="M60.296,10l-2.88,13.6c-0.08,0.44-0.16,0.88-0.16,1.24c0,0.88,0.4,1.52,2,1.52c1.6,0,3.68-2.24,5.281-3.52 h1.36c-1.84,1.84-6.361,7.16-9.481,7.16c-2.72,0-4.561-1.041-4.921-3.36C49.614,28.4,47.454,30,45.734,30 c-3.082,0-5.001-1.36-5.001-4.36c0-0.6,0.08-1.28,0.24-2.04l2.88-13.6h5.761l-2.88,13.6c-0.081,0.44-0.16,0.88-0.16,1.24 c0,0.88,0.4,1.52,2,1.52c0.84,0,1.84-0.64,2.84-1.44c0.041-0.4,0.12-0.84,0.24-1.32L54.535,10H60.296z"/>
	<path fill="#ffffff" d="M70.82,10l-0.44,2c1.44-1.12,3.04-2,4.721-2c1.8,0,2.88,1.04,2.88,2.56c0,1.4-1.04,3.12-3,3.12 c-2.24,0-1.121-2.641-2.32-2.641c-1.201,0-1.84,0.44-2.76,1.28L66.58,30h-5.762l4.241-20H70.82z"/>
	<path fill="#ffffff" d="M88.105,2l-4.601,21.6c-0.12,0.6-0.2,0.959-0.2,1.28c0,0.88,0.44,1.48,2,1.48c1.6,0,3.681-2.24,5.281-3.52 h1.36c-1.84,1.84-6.361,7.16-9.481,7.16c-3.081,0-4.961-1.36-4.961-4.36c0-0.6,0.08-1.28,0.24-2.04l4.441-20.8L88.105,2z"/>
	<path fill="#ffffff" d="M103.149,15.48c0.24,0.24,0.6,0.36,1.16,0.36c1.881,0,2.721-1.36,4.201-1.96l0.16,0.84 c-1.24,1.56-3.321,2.88-5.641,3.521c-0.761,8.04-5.121,12-9.122,12c-4.281,0-6.121-1.8-6.121-6.56 c0-9.839,5.001-14.08,10.522-14.08C102.109,9.6,103.07,12.56,103.149,15.48z M100.069,18.64c-1.161,0-1.681-0.84-1.681-1.8 c0-1.16,0.681-2.401,1.761-2.8c-0.12-1.32-0.561-2.08-1.68-2.08c-3.761,0-5.361,8.16-5.361,11.36c0,2.4,1.12,3.04,2.68,3.04 C98.229,26.36,99.588,22.52,100.069,18.64z"/>
	<path fill="#ffffff" d="M123.915,10l-3.761,17.72c2.561-1.32,4.841-3.12,6.162-6.12l-0.16,3.16c-0.521,2.601-3.321,4.08-6.481,5.24 l-0.681,3.2c-1.2,5.72-4.561,6.8-7.201,6.8c-2.44,0-4.481-1.28-4.481-3.88c0-3.28,2.921-4.6,6.522-5.919l0.4-1.8 c-1.201,1.08-2.761,1.92-4.601,1.92c-3.84,0-4.961-3.24-4.961-5.6c0-5.52,2.121-14.68,9.882-14.68c1.44,0,2.6,0.8,3.16,1.88 l0.44-1.92H123.915z M110.872,36.88c0.8,0,1.841-1.2,2.321-3.56l0.24-1.2c-2.28,0.88-3.921,1.88-3.921,3.44 C109.512,36.12,109.992,36.88,110.872,36.88z M109.592,23.959c0,1.92,1.161,2.521,2.921,2.521c0.8,0,1.64-0.6,2.4-1.4L117.273,14 c-0.64-1.2-1.6-1.719-2.28-1.719C111.113,12.28,109.592,20.52,109.592,23.959z"/>
	<path fill="#ffffff" d="M142.6,12.76l0.4,0.8c-0.4,1.4-1.08,3.28-2.68,4.24c-0.44,8.28-5.161,12.48-8.921,12.48 c-4.281,0-6.282-1.84-6.282-6.6c0-9.76,5.042-14.08,10.522-14.08c1.92,0,3.761,0.76,3.761,1.8c0,1.16-0.961,1.64-1.801,1.92 c-0.32-0.84-0.88-1.36-1.8-1.36c-3.921,0-5.361,8.16-5.361,11.36c0,2.4,1.2,3.04,2.8,3.04c2.36,0,3.761-4.32,4.161-8 c-0.8-0.16-1.121-0.8-1.121-1.64c0-1.4,1.4-3.04,2.681-3.04c0.76,0,1.36,0.24,1.36,1.08c0,0.12,0,0.24-0.041,0.36 C141.32,14.48,141.68,13.76,142.6,12.76z"/>
</svg>