<svg id="name" xmlns="http://www.w3.org/2000/svg" xmlns:xlink="http://www.w3.org/1999/xlink" width="77.18" height="35.97" viewBox="0 0 77.18 35.97"><defs><style>.cls-1{fill:none;}.cls-2,.cls-7{fill:#fff;}.cls-2{opacity:0.5;}.cls-3{opacity:0.6;}.cls-4{clip-path:url(#clip-path);}.cls-5{fill:#303841;opacity:0.25;}.cls-6{clip-path:url(#clip-path-2);}</style><clipPath id="clip-path" transform="translate(-156.82 -72.28)"><path class="cls-1" d="M189.44,108.25h-6a1.9,1.9,0,0,1-1.78-1.5l-6.19-33a1.21,1.21,0,0,1,1.22-1.5h6a1.9,1.9,0,0,1,1.78,1.5l6.19,33A1.21,1.21,0,0,1,189.44,108.25Z"/></clipPath><clipPath id="clip-path-2" transform="translate(-156.82 -72.28)"><path class="cls-1" d="M214.58,108.25h-6a1.9,1.9,0,0,1-1.78-1.5l-6.19-33a1.21,1.21,0,0,1,1.22-1.5h6a1.9,1.9,0,0,1,1.78,1.5l6.19,33A1.21,1.21,0,0,1,214.58,108.25Z"/></clipPath></defs><title>logo-mach3builders-mark-light</title><path class="cls-2" d="M189.44,108.25h-6a1.9,1.9,0,0,1-1.78-1.5l-6.19-33a1.21,1.21,0,0,1,1.22-1.5h6a1.9,1.9,0,0,1,1.78,1.5l6.19,33A1.21,1.21,0,0,1,189.44,108.25Z" transform="translate(-156.82 -72.28)"/><path class="cls-2" d="M214.58,108.25h-6a1.9,1.9,0,0,1-1.78-1.5l-6.19-33a1.21,1.21,0,0,1,1.22-1.5h6a1.9,1.9,0,0,1,1.78,1.5l6.19,33A1.21,1.21,0,0,1,214.58,108.25Z" transform="translate(-156.82 -72.28)"/><g class="cls-3"><g class="cls-4"><path class="cls-5" d="M168.39,108.25h-6c-0.82,0-1.14-.67-0.71-1.5l17.44-33a2.94,2.94,0,0,1,2.29-1.5h6c0.82,0,1.14.67,0.71,1.5l-17.44,33A2.94,2.94,0,0,1,168.39,108.25Z" transform="translate(-156.82 -72.28)"/></g></g><g class="cls-3"><g class="cls-6"><path class="cls-5" d="M193.52,108.25h-6c-0.82,0-1.14-.67-0.71-1.5l17.44-33a2.94,2.94,0,0,1,2.29-1.5h6c0.82,0,1.14.67,0.71,1.5l-17.44,33A2.94,2.94,0,0,1,193.52,108.25Z" transform="translate(-156.82 -72.28)"/></g></g><path class="cls-7" d="M163.71,108.25h-6c-0.82,0-1.14-.67-0.71-1.5l17.44-33a2.94,2.94,0,0,1,2.29-1.5h6c0.82,0,1.14.67,0.71,1.5l-17.44,33A2.94,2.94,0,0,1,163.71,108.25Z" transform="translate(-156.82 -72.28)"/><path class="cls-7" d="M189.08,108.25h-6c-0.82,0-1.14-.67-0.71-1.5l17.44-33a2.94,2.94,0,0,1,2.29-1.5h6c0.82,0,1.14.67,0.71,1.5l-17.44,33A2.94,2.94,0,0,1,189.08,108.25Z" transform="translate(-156.82 -72.28)"/><path class="cls-7" d="M214.07,108.25h-6c-0.82,0-1.14-.67-0.71-1.5l17.44-33a2.94,2.94,0,0,1,2.29-1.5h6c0.82,0,1.14.67,0.71,1.5l-17.44,33A2.94,2.94,0,0,1,214.07,108.25Z" transform="translate(-156.82 -72.28)"/></svg>